<svg xmlns="http://www.w3.org/2000/svg" viewBox="0 0 57.259 57.329">
  <g id="Git-Icon-Black" transform="translate(-260.475 -331.175)">
    <path id="Path_3" data-name="Path 3" d="M316.6,357.252l-25-25a3.726,3.726,0,0,0-5.237,0l-5.175,5.175,6.609,6.609a4.308,4.308,0,0,1,4.489,1.06,4.442,4.442,0,0,1,1.06,4.551l6.36,6.36a4.442,4.442,0,0,1,4.551,1.06,4.409,4.409,0,1,1-7.17,1.434l-5.923-5.923v15.587a5,5,0,0,1,1.185.811,4.366,4.366,0,0,1,0,6.235,4.48,4.48,0,0,1-6.235,0,4.366,4.366,0,0,1,0-6.235,4.061,4.061,0,0,1,1.434-.935V352.264a5.154,5.154,0,0,1-1.434-.935,4.33,4.33,0,0,1-.935-4.8l-6.484-6.484L261.551,357.19a3.726,3.726,0,0,0,0,5.237l25,25a3.726,3.726,0,0,0,5.237,0l24.877-24.877A3.744,3.744,0,0,0,316.6,357.252Z"/>
  </g>
</svg>
