<svg xmlns="http://www.w3.org/2000/svg" viewBox="0 0 47.687 32.329">
  <g id="_6" data-name="6" transform="translate(-29.266 -35.943)">
    <path id="Path_1" data-name="Path 1" d="M54,56.229a1.745,1.745,0,0,1-1.774,0L30.012,43.113a.494.494,0,0,0-.746.426v19.92a3.749,3.749,0,0,0,3.749,3.749H73.2a3.749,3.749,0,0,0,3.749-3.749V43.539a.494.494,0,0,0-.746-.426Z" transform="translate(0 1.065)"/>
    <path id="Path_2" data-name="Path 2" d="M54.094,53.182,76.7,39.836a.49.49,0,0,0,.242-.46A3.754,3.754,0,0,0,73.2,35.943H33.014a3.754,3.754,0,0,0-3.736,3.432.49.49,0,0,0,.242.46l22.6,13.347a1.939,1.939,0,0,0,1.972,0Z" transform="translate(0.002)"/>
  </g>
</svg>
